<svg width="60" height="60" viewBox="0 0 60 60" fill="none" xmlns="http://www.w3.org/2000/svg">
<path d="M41.25 1.875H16.875V5.625H41.25V1.875Z" fill="white"/>
<path d="M46.1213 24.3713C41.8462 20.8088 39.375 15.5325 39.375 9.9675V7.5H18.75V9.9675C18.75 15.5325 16.2787 20.8088 12.0037 24.3713L7.5 28.125L28.125 58.125V37.4063C25.9856 36.9713 24.375 35.0812 24.375 32.8125C24.375 30.2231 26.4731 28.125 29.0625 28.125C31.6519 28.125 33.75 30.2231 33.75 32.8125C33.75 35.0794 32.1394 36.9713 30 37.4063V58.125L50.625 28.125L46.1213 24.3713Z" fill="white"/>
<path d="M41.25 1.875H16.875V5.625H41.25V1.875Z" fill="white"/>
<path d="M46.1213 24.3713C41.8462 20.8088 39.375 15.5325 39.375 9.9675V7.5H18.75V9.9675C18.75 15.5325 16.2787 20.8088 12.0037 24.3713L7.5 28.125L28.125 58.125V37.4063C25.9856 36.9713 24.375 35.0812 24.375 32.8125C24.375 30.2231 26.4731 28.125 29.0625 28.125C31.6519 28.125 33.75 30.2231 33.75 32.8125C33.75 35.0794 32.1394 36.9713 30 37.4063V58.125L50.625 28.125L46.1213 24.3713Z" fill="white"/>
</svg>
