<svg width="60" height="50" viewBox="0 0 60 50" fill="none" xmlns="http://www.w3.org/2000/svg">
<path d="M14.0625 0H11.3672V9.14062H14.0625V0Z" fill="white"/>
<path d="M48.1641 0H45.3516V9.14062H48.1641V0Z" fill="white"/>
<path d="M40.6641 29.1148C40.6641 28.3833 39.9996 27.7734 39.2681 27.7734H37.9423C37.2108 27.7734 36.6797 28.3833 36.6797 29.1148V33.0469H40.6641V29.1148Z" fill="white"/>
<path d="M0 49.4531H59.5312V17.6953H0V49.4531ZM45.5859 26.5945C45.5859 25.9498 46.113 25.427 46.7578 25.427C47.4026 25.427 47.9297 25.9498 47.9297 26.5945V28.8226L50.5664 33.1938L53.2031 28.8226V26.5945C53.2031 25.9498 53.7302 25.427 54.375 25.427C55.0198 25.427 55.5469 25.9498 55.5469 26.5945V29.1464C55.5469 29.3583 55.482 29.5662 55.3729 29.7478L51.6797 35.8813V40.4877C51.6797 41.1325 51.1526 41.6552 50.5078 41.6552C49.863 41.6552 49.3359 41.1325 49.3359 40.4877V35.687L45.7597 29.7478C45.6506 29.5662 45.5859 29.3583 45.5859 29.1464V26.5945ZM34.3359 29.1148C34.3359 27.0959 35.9234 25.4297 37.9423 25.4297H39.2681C41.287 25.4297 43.0078 27.0959 43.0078 29.1148V33.9289C43.0078 34.0109 43.0364 34.0958 43.0364 34.1832C43.0364 34.2707 43.0078 34.3556 43.0078 34.4375V40.5115C43.0078 41.1562 42.4807 41.679 41.8359 41.679C41.1912 41.679 40.6641 41.1562 40.6641 40.5115V35.3906H36.6797V40.5116C36.6797 41.1564 36.1526 41.6791 35.5078 41.6791C34.863 41.6791 34.3359 41.1564 34.3359 40.5116V29.1148ZM17.8125 26.5945C17.8125 25.9498 18.3799 25.4297 19.0247 25.4297H20.1683C20.6503 25.4297 21.0829 25.7245 21.2569 26.1741L24.065 33.4204L26.7782 26.1862C26.9491 25.7306 27.3847 25.4297 27.8713 25.4297H29.1818C29.8266 25.4297 30.3514 25.9498 30.3514 26.5945V40.4877C30.3514 41.1325 29.8243 41.6552 29.1796 41.6552C28.5348 41.6552 28.0077 41.1325 28.0077 40.4877V29.5383L25.1727 37.1591C25.0025 37.6125 24.5735 37.9688 24.0892 37.9688C24.0871 37.9688 24.0848 37.9688 24.0827 37.9688C23.601 37.9688 23.1505 37.6206 22.9762 37.1709L20.1562 29.8873V40.4877C20.1562 41.1325 19.6291 41.6552 18.9844 41.6552C18.3396 41.6552 17.8125 41.1325 17.8125 40.4877V26.5945ZM5.13152 39.375H7.85156V29.4299L7.29961 29.9619C6.84258 30.4166 6.09457 30.4147 5.63977 29.958C5.18496 29.501 5.18238 28.7618 5.6393 28.3069L8.16269 25.7932C8.49715 25.4604 9.01969 25.3616 9.45504 25.5427C9.89062 25.7237 10.1952 26.1491 10.1952 26.6208V39.375H12.7201C13.3649 39.375 13.8877 39.8435 13.8877 40.4883C13.8877 41.133 13.3649 41.6016 12.7201 41.6016H5.13152C4.48676 41.6016 3.96398 41.133 3.96398 40.4883C3.96398 39.8435 4.48676 39.375 5.13152 39.375Z" fill="white"/>
<path d="M50.5078 6.32812V10.2043C50.5078 10.8491 49.9837 11.3672 49.339 11.3672H44.2877C43.643 11.3672 43.1249 10.8492 43.1249 10.2043V6.32812H16.4062V10.2043C16.4062 10.8491 15.8882 11.3672 15.2434 11.3672H10.1921C9.54738 11.3672 9.02344 10.8492 9.02344 10.2043V6.32812H0V15.3516H59.5312V6.32812H50.5078Z" fill="white"/>
</svg>
