<svg width="60" height="60" viewBox="0 0 60 60" fill="none" xmlns="http://www.w3.org/2000/svg">
<path d="M46.6583 46.0793L38.7252 42.8368C37.9905 42.4811 37.2911 41.5021 37.2727 41.2009V38.5781C37.2727 38.4088 37.2911 38.2396 37.2934 38.1504C38.6533 36.3773 43.0904 30.127 43.0904 24.1287C43.0904 15.8414 37.83 10.2726 30.0003 10.2726C22.1709 10.2726 16.9105 15.8414 16.9105 24.1287C16.9105 30.1261 21.3468 36.3764 22.6727 38.0768C22.7093 38.2406 22.728 38.409 22.728 38.5782L22.7282 41.1856C22.7098 41.4986 22.0108 42.4812 21.2864 42.8314L13.3348 46.0829C10.8839 47.2093 9.11984 49.4637 8.61805 52.103L7.67188 55.905L30.0002 60L52.3289 55.905L51.3847 52.1122C50.8797 49.4628 49.1157 47.2093 46.6583 46.0793ZM27.6307 46.9054C27.6307 47.4885 27.975 48.0162 28.5014 48.2601V54.6559L22.5527 46.9691L23.047 46.7654C24.9659 45.8838 27.0371 43.5056 27.0371 41.2011V38.5782C27.0371 37.8421 26.9155 37.1161 26.6755 36.4192L26.5302 36.0334L26.3131 35.7651C26.2621 35.7013 21.2197 29.3656 21.2197 24.1288C21.2197 17.0897 25.7554 14.5824 30.0003 14.5824C34.2452 14.5824 38.7812 17.0897 38.7812 24.1288C38.7812 29.3247 33.8971 35.5031 33.6897 35.7633L33.4398 36.0882L33.3262 36.4157C33.0854 37.1126 32.9634 37.8405 32.9634 38.5783V41.2012C32.9634 43.5057 35.0348 45.8839 36.9612 46.7691L37.4484 46.9683L31.4983 54.657C31.4983 54.657 31.4983 48.2611 31.4983 48.2602C32.0246 48.0163 32.3688 47.4886 32.3688 46.9055C32.3688 46.0785 31.6967 45.4062 30.8704 45.4062H29.1293C28.303 45.406 27.6307 46.0784 27.6307 46.9054Z" fill="white"/>
<path d="M27.0878 16.6448C26.8865 16.6448 26.6928 16.6912 26.5124 16.7821C25.8351 17.1234 24.984 17.7365 24.626 18.4361C24.4701 18.74 24.4415 19.0884 24.545 19.4151C24.6489 19.7434 24.8739 20.011 25.178 20.1657C25.3606 20.2594 25.5638 20.3095 25.7653 20.3095C26.2443 20.3095 26.6776 20.0447 26.8877 19.6335C26.9293 19.568 27.2012 19.3014 27.6632 19.0686C28.2935 18.751 28.548 17.9795 28.2308 17.3491C28.0122 16.9141 27.5743 16.6448 27.0878 16.6448Z" fill="white"/>
<path d="M25.5937 24.1287C25.5937 23.4227 25.0196 22.8486 24.3139 22.8486C23.6083 22.8486 23.0342 23.4227 23.0342 24.1287C23.0342 25.7227 23.6168 27.686 24.7667 29.9659C24.9857 30.4008 25.424 30.671 25.9103 30.671C26.1087 30.671 26.3077 30.6227 26.4856 30.5327C27.1154 30.2152 27.3696 29.4437 27.0522 28.8141C26.0982 26.9217 25.5937 25.3014 25.5937 24.1287Z" fill="white"/>
<path d="M29.9997 6.54598C30.826 6.54598 31.4983 5.87367 31.4983 5.04762V1.49848C31.4983 0.672305 30.826 0 29.9997 0C29.1733 0 28.5012 0.672305 28.5012 1.49848V5.04762C28.5013 5.87367 29.1734 6.54598 29.9997 6.54598Z" fill="white"/>
<path d="M14.8559 11.9411C15.1386 12.224 15.5149 12.3796 15.9156 12.3796C16.3164 12.3796 16.6926 12.224 16.975 11.9411C17.2581 11.6582 17.4142 11.2815 17.4142 10.8812C17.4142 10.4809 17.2581 10.1043 16.975 9.82127L14.4658 7.31205C14.1829 7.02904 13.8067 6.87354 13.4064 6.87354C13.0063 6.87354 12.6302 7.02904 12.3469 7.31205C12.0638 7.59494 11.9077 7.97158 11.9077 8.37189C11.9077 8.77221 12.0638 9.14885 12.3469 9.43174L14.8559 11.9411Z" fill="white"/>
<path d="M45.144 37.9903C44.8614 37.7074 44.4851 37.5518 44.0845 37.5518C43.6842 37.5518 43.3078 37.7074 43.0249 37.9903C42.7418 38.2732 42.5857 38.6498 42.5857 39.0501C42.5857 39.4504 42.7418 39.8261 43.0249 40.1101L45.5339 42.6193C45.8163 42.9022 46.1926 43.0588 46.5935 43.0588C46.9936 43.0588 47.37 42.9023 47.653 42.6193C47.9361 42.3363 48.0922 41.9597 48.0922 41.5593C48.0922 41.159 47.9361 40.7833 47.653 40.4995L45.144 37.9903Z" fill="white"/>
<path d="M11.5805 24.9656C11.5805 24.1395 10.9085 23.4672 10.0821 23.4672H6.53314C5.70686 23.4672 5.03467 24.1395 5.03467 24.9656C5.03467 25.7917 5.70686 26.464 6.53314 26.464L10.0821 26.4649C10.9085 26.4651 11.5805 25.7926 11.5805 24.9656Z" fill="white"/>
<path d="M53.4669 23.4673H49.918C49.0917 23.4673 48.4194 24.1396 48.4194 24.9658C48.4194 25.7928 49.0917 26.4651 49.918 26.4651H53.4669C54.2932 26.4651 54.9653 25.7926 54.9653 24.9658C54.9653 24.1396 54.2932 23.4673 53.4669 23.4673Z" fill="white"/>
<path d="M13.4062 43.0586C13.8063 43.0586 14.1827 42.9022 14.4656 42.6192L16.9759 40.1109C17.5595 39.5259 17.5598 38.5752 16.9762 37.9902C16.6933 37.7073 16.3171 37.5516 15.9168 37.5516C15.5167 37.5516 15.1401 37.7073 14.8566 37.9902L12.3467 40.4994C12.0636 40.7823 11.9075 41.1589 11.9075 41.5592C11.9075 41.9595 12.0633 42.3362 12.346 42.6192C12.6292 42.9022 13.0059 43.0586 13.4062 43.0586Z" fill="white"/>
<path d="M44.0841 12.3806C44.4838 12.3806 44.8599 12.2249 45.1436 11.9421L47.654 9.43283C48.2379 8.84783 48.2379 7.89709 47.6543 7.31303C47.3714 7.03014 46.9951 6.87451 46.5948 6.87451C46.1945 6.87451 45.818 7.03014 45.5347 7.31303L43.0248 9.82225C42.4405 10.4063 42.4402 11.3571 43.0245 11.9421C43.3079 12.2249 43.6841 12.3806 44.0841 12.3806Z" fill="white"/>
</svg>
