<svg width="45" height="50" viewBox="0 0 45 50" fill="none" xmlns="http://www.w3.org/2000/svg">
<path fill-rule="evenodd" clip-rule="evenodd" d="M2.92892 2.92893C-2.98023e-07 5.85787 0 10.5719 0 20V30C0 39.428 -2.98023e-07 44.1423 2.92892 47.071C5.85787 50 10.5719 50 20 50H25C34.428 50 39.1423 50 42.071 47.071C45 44.1423 45 39.428 45 30V20C45 10.5719 45 5.85787 42.071 2.92893C39.1423 2.98023e-07 34.428 0 25 0H20C10.5719 0 5.85787 2.98023e-07 2.92892 2.92893ZM10.625 15C10.625 13.9645 11.4645 13.125 12.5 13.125H32.5C33.5355 13.125 34.375 13.9645 34.375 15C34.375 16.0355 33.5355 16.875 32.5 16.875H12.5C11.4645 16.875 10.625 16.0355 10.625 15ZM10.625 25C10.625 23.9645 11.4645 23.125 12.5 23.125H32.5C33.5355 23.125 34.375 23.9645 34.375 25C34.375 26.0355 33.5355 26.875 32.5 26.875H12.5C11.4645 26.875 10.625 26.0355 10.625 25ZM12.5 33.125C11.4645 33.125 10.625 33.9645 10.625 35C10.625 36.0355 11.4645 36.875 12.5 36.875H25C26.0355 36.875 26.875 36.0355 26.875 35C26.875 33.9645 26.0355 33.125 25 33.125H12.5Z" fill="white"/>
</svg>
